<?xml version="1.0" standalone="no"?>
<!DOCTYPE svg PUBLIC "-//W3C//DTD SVG 20010904//EN"
 "http://www.w3.org/TR/2001/REC-SVG-20010904/DTD/svg10.dtd">
<svg version="1.0" xmlns="http://www.w3.org/2000/svg"
 width="76px" height="35px" viewBox="0 0 510.000000 489.000000"
 preserveAspectRatio="xMidYMid meet">

<g transform="translate(0.000000,489.000000) scale(0.100000,-0.100000)"
fill="#000000" stroke="none">
<path d="M2225 4011 c-224 -43 -376 -120 -526 -270 -125 -125 -206 -267 -252
-446 -71 -272 -40 -527 94 -772 100 -183 311 -366 506 -439 59 -23 263 -74
292 -74 8 0 11 76 11 235 l0 235 -27 6 c-146 31 -286 139 -355 269 -50 97 -68
168 -68 268 0 188 104 369 270 468 63 37 96 51 153 63 l27 6 0 235 c0 218 -1
235 -17 234 -10 -1 -58 -9 -108 -18z"/>
<path d="M2800 3996 c0 -3 38 -28 85 -56 47 -28 90 -57 97 -63 7 -7 36 -30 63
-51 110 -86 250 -257 315 -386 17 -33 31 -60 33 -60 1 0 3 140 4 310 l1 310
-299 0 c-164 0 -299 -2 -299 -4z"/>
<path d="M2936 3224 c-95 -106 -180 -154 -346 -195 l-45 -11 73 -19 c109 -28
203 -82 293 -170 l78 -77 3 269 c2 148 3 269 3 269 0 0 -27 -30 -59 -66z"/>
<path d="M3375 2613 c-66 -127 -190 -290 -272 -360 -26 -23 -59 -51 -73 -63
-32 -28 -181 -126 -214 -142 -14 -6 -26 -14 -26 -17 0 -3 137 -6 304 -6 l305
0 -2 312 c-1 172 -2 313 -2 313 0 0 -9 -17 -20 -37z"/>
<path d="M1044 1246 c-37 -17 -61 -38 -85 -72 -28 -41 -33 -58 -37 -123 -4
-69 -1 -81 25 -131 74 -141 286 -164 381 -41 45 59 42 71 -14 71 -37 0 -51 -5
-75 -29 -111 -112 -279 31 -215 183 37 89 174 114 223 40 13 -20 24 -24 64
-24 59 0 63 14 19 70 -64 81 -183 104 -286 56z"/>
<path d="M1510 1035 l0 -235 45 0 44 0 3 98 3 97 98 3 97 3 0 -101 0 -100 45
0 45 0 0 235 0 235 -45 0 -45 0 0 -95 0 -96 -97 3 -98 3 -3 93 -3 92 -44 0
-45 0 0 -235z"/>
<path d="M2179 1243 c-6 -15 -33 -89 -59 -163 -26 -74 -60 -165 -74 -203 -14
-37 -26 -70 -26 -72 0 -3 22 -5 49 -5 49 0 49 0 64 43 l14 42 93 0 93 0 15
-42 c14 -43 14 -43 63 -43 27 0 49 3 49 8 0 4 -38 108 -83 232 l-82 225 -53 3
c-49 3 -53 1 -63 -25z m95 -181 c14 -42 26 -83 26 -90 0 -8 -19 -12 -60 -12
-33 0 -60 4 -60 8 0 22 52 172 60 172 5 0 20 -35 34 -78z"/>
<path d="M2586 1258 c-2 -7 -3 -112 -3 -233 l2 -220 123 -3 122 -3 0 41 0 40
-75 0 -75 0 -2 193 -3 192 -43 3 c-28 2 -43 -1 -46 -10z"/>
<path d="M2957 1264 c-4 -4 -7 -110 -7 -236 l0 -228 125 0 125 0 0 40 0 40
-75 0 -75 0 -2 193 -3 192 -40 3 c-23 2 -44 0 -48 -4z"/>
<path d="M3451 1248 c-5 -13 -24 -68 -44 -123 -19 -55 -53 -151 -76 -212 l-40
-113 48 0 c48 0 48 0 65 45 l18 45 93 0 92 0 13 -45 13 -45 48 0 c27 0 49 3
49 7 0 6 -35 105 -125 353 -13 36 -26 75 -30 88 -6 19 -13 22 -61 22 -47 0
-56 -3 -63 -22z m98 -196 c16 -45 26 -83 23 -86 -10 -10 -122 -6 -122 4 0 10
33 109 53 160 5 14 11 20 14 14 2 -7 17 -48 32 -92z"/>
<path d="M3860 1035 l0 -235 45 0 44 0 3 157 3 157 104 -157 105 -157 43 0 43
0 0 235 0 235 -45 0 -44 0 -3 -155 -3 -154 -103 154 -102 155 -45 0 -45 0 0
-235z"/>
<path d="M1890 466 c0 -46 -3 -91 -6 -99 -7 -19 11 -24 69 -19 57 5 68 32 13
32 -26 0 -36 5 -41 20 -9 28 2 40 36 40 19 0 29 5 29 15 0 10 -11 15 -35 15
-31 0 -35 3 -35 25 0 23 4 25 40 25 29 0 40 4 40 15 0 12 -13 15 -55 15 l-55
0 0 -84z"/>
<path d="M2120 544 c0 -3 14 -25 30 -49 l30 -44 -31 -51 c-17 -28 -29 -54 -26
-57 11 -11 38 7 55 37 9 16 20 30 24 30 3 0 16 -16 28 -35 20 -33 39 -43 52
-29 4 3 -8 28 -24 55 l-31 49 31 50 c31 49 31 50 9 50 -15 0 -29 -11 -40 -30
-22 -37 -28 -37 -49 0 -10 18 -25 30 -38 30 -11 0 -20 -3 -20 -6z"/>
<path d="M2410 444 c0 -95 2 -105 18 -102 12 2 18 15 20 46 3 42 3 42 42 42
63 0 90 55 50 98 -17 17 -32 22 -75 22 l-55 0 0 -106z m100 61 c19 -23 4 -45
-30 -45 -27 0 -30 3 -30 30 0 25 4 30 24 30 13 0 29 -7 36 -15z"/>
<path d="M2670 451 c0 -57 4 -101 10 -103 5 -1 32 -1 60 0 35 3 50 8 50 18 0
10 -12 14 -40 14 -38 0 -40 2 -40 30 0 28 3 30 35 30 24 0 35 5 35 15 0 10
-11 15 -35 15 -31 0 -35 3 -35 25 0 23 4 25 40 25 29 0 40 4 40 15 0 12 -13
15 -60 15 l-60 0 0 -99z"/>
<path d="M2912 448 c2 -84 6 -103 18 -103 10 0 16 13 18 43 2 23 7 42 12 42 5
0 19 -18 31 -40 12 -21 29 -42 36 -45 28 -10 33 7 11 44 l-21 38 21 21 c27 27
28 56 2 82 -15 15 -33 20 -75 20 l-56 0 3 -102z m98 57 c19 -23 4 -45 -30 -45
-27 0 -30 3 -30 30 0 25 4 30 24 30 13 0 29 -7 36 -15z"/>
<path d="M3170 535 c0 -10 10 -15 30 -15 l30 0 0 -90 c0 -73 3 -90 15 -90 12
0 15 17 15 89 l0 90 27 3 c14 2 28 9 31 16 3 9 -16 12 -72 12 -61 0 -76 -3
-76 -15z"/>
<path d="M710 445 c0 -13 47 -15 382 -13 294 2 382 6 386 16 3 9 -78 12 -382
12 -338 0 -386 -2 -386 -15z"/>
<path d="M3733 448 c3 -10 88 -13 382 -13 294 0 379 3 383 13 3 9 -78 12 -383
12 -305 0 -386 -3 -382 -12z"/>
</g>
</svg>